/* XPM */
static const char *baldosa_1_50[] = {
/* columns rows colors chars-per-pixel */
"50 50 70 1 ",
"  c #5A553B",
". c #5E593E",
"X c #625D40",
"o c #676245",
"O c #696446",
"+ c #6B6648",
"@ c #6F6A4D",
"# c #706A4E",
"$ c #777253",
"% c #7C7756",
"& c #787459",
"* c #7E795A",
"= c #817B5D",
"- c #807C62",
"; c #87815F",
": c #858064",
"> c #8A8463",
", c #8B866B",
"< c #8C886F",
"1 c #928D6D",
"2 c #8E8B74",
"3 c #918D72",
"4 c #969277",
"5 c #989377",
"6 c #9F9974",
"7 c #959179",
"8 c #999579",
"9 c #A19B75",
"0 c #A69F79",
"q c #A7A079",
"w c #A9A27C",
"e c #9E9A81",
"r c #A39F87",
"t c #A39F88",
"y c #ABA681",
"u c #AFAB86",
"i c #AFAA88",
"p c #B0AB87",
"a c #B2AD8B",
"s c #B5B08E",
"d c #B1AE90",
"f c #B6B292",
"g c #B8B395",
"h c #B8B494",
"j c #BAB597",
"k c #BAB698",
"l c #BCB79A",
"z c #BAB79D",
"x c #BBB89A",
"c c #BDB99B",
"v c #BAB89D",
"b c #BDB99C",
"n c #BFBC9F",
"m c #BFBDA1",
"M c #BFBDA3",
"N c #BFBEA9",
"B c #C0BB9F",
"V c #C0BC9F",
"C c #C3BFA3",
"Z c #C3BFA4",
"A c #C0BEA8",
"S c #C3C2A7",
"D c #C4C2A7",
"F c #C3C2A8",
"G c #C4C1A8",
"H c #C6C4AC",
"J c #C9C7AF",
"K c #CAC7B1",
"L c #CBC9B3",
"P c #CCC9B3",
/* pixels */
" ................................................ ",
"X&<<<<<<<<<<:%<<<<<<<<<<<:=%<<<<<<=*<<<<<<<<<=%%%$",
"XeLPPLLLLLLLkqKPPPPPLLLLLkaqJLLLLLayPLLLPPLPLuqqq9",
"X8DafFSSSSSSmbGbaaabbbbbbjffbbbbbbffbbbbfaZSFbccu9",
"X4CiaZZZZZZZZZZjyqyjjjfjkkkkkkkkkkkkkjjjawbCCCCbaw",
"X4ZZZZZZZZZZZZZZZyyjjfqgSSSSSSSSSSSSSbjjjjjjjjfqkv",
"X4Zafbbbbbbbbbbbbaajjjajcafbbbbbbbbbbkjbbbbbbkfqkz",
"X4ZyujjjjjjjjjjjjjjjjjjjjwajjjjjjjjjgjjCCCCCCkfqkz",
"X4ZCCZZZZZZZZCkjjjjjjfqajjjjjjjjjjjfqajjjjjjjjjjnz",
"X4ZZZZZCakbbbbjjjjjjjjafjjjjjjjjjjjfqyabbbbbbbkibz",
"X4ZZCCCbqajjjjjjjjjjjjjjjjjjjjjjjjjfqqwCCZZZZZcqkz",
"X4ZZkwcCCCVwajjjjjjjjjjjjjaqqyaaapwwjjjjbZZZZZZCZz",
"X4ZSkqfkkkjqyaaaaffffffffauwwyuuuuwwsfffjkkkgCCgbz",
"X4ZSkqypuuuqqqqqquuuuupppqyppppppuwqppuuuuuyqbcqjz",
"X>ynkqypuuuuwqqwuuuuuupywqqwwwwwwuuupuuuuuuuubCbCz",
"X;qbcpasyyypywwyuuuuuuuywwwwwwwwyuuuuuuuuuuuyjkkkd",
"X;qBZZZb0qqpuuuuuuuuuppppppppppppuuuuuuuuupyqqqqq9",
"X;qbZZZCkaupuuuuuuuuuuwwwwwwwwwwyuuuuuuuuucblkfqff",
"X;qbCbbbbsuuupuuuaaaaawwwwwwwwwqyaaaaaaaaaCCCmkykz",
"X;qbkqqqqqqqypuuumCZZCpppppuppppfZCCCCCCCCCcuusZZz",
"X;qnbggfqqqyupuupfffmCkxxksuuuwjbZkjjjjjjjjspuafbz",
"X>wBZZCcqqwaaaaaapuucCCCCCjuuyqbZZfaaaaaaaaaaaaaxk",
"X4ZZZZfappaCCCCCCapppppppppppppbZZCZCCCCCCCCCCCZa9",
"X4ZZZZcjjjkCZZZZZkfyyyyyyyyypuyfjjCZZZZZZZZZZZZZa9",
"X4CCCCCCCCCCCCCCCCk00000000quyquppcCCCCCCCCCCCCCa6",
"X+@@@@###@@@@@@@@@@++O++++++++++++@@@@@@@@@@@@@@+o",
"244444<,,344444444444743,o-44444444444444444444442",
"FLLLLLbjjGLLLLLLLLLLLLLCfOrLLLLLLLLLLLLLLLLLLLLLLF",
"fccZDDCCCZDDDDDDDDDDDDDZbO8ccbDDDDDDDCccccusDDDDbf",
"djjCZZZZZZZZZZZZZZZZCCCCvO8bjcZZZZZZZbkkxcafZZZZbf",
"djjCZZZZZZZZZZZZZZZZcjjjfOtLkcZZZZZZZZZZZZSZZZZZZz",
"djjxcccccccccccccccckjjjfOtLCCCbcccccccccccccccccf",
"djjjjjjjjjjjjjjjjjjkkkkxfOtLCCCkjkkkkkkkkkkjfjjjjd",
"djjjjjjjjjjjjjjjjjcZZSZJH+rLkjjjxZZZZZZZZZZjqfjjjd",
"djjjjjjjjjjjjjjjjjkbbkaZH+tLffjjkbbbbbbbbbbjagjjjd",
"ajjjjjjjjjjjjjjjjjjjjfqbH+tLaajjjjjjjjjjjjjjjjjjja",
"9yppppppppppiiigZkjjjjjDH+tLafZZZZZZZZZZZZZjqqqqq9",
"0yuuuuuuuuuusjjjjfssssaCH+tLafZZbfjjjjjjjjjsyyyyq9",
"yuuuuuuuupuujZZxpuppuuqbH+rLafCZkqypuppppppuupppw9",
"yuuuuuuuukCCCSZCCywpuuuCH+1apaaaauuuuyqqqquuuuuuuy",
"yuupuyyypfcxxxxxxyyuuuyCH+5kauuuuuuuuywwwwuuyyyuuy",
"yuupyqqwppuuuuuuuuuuuuqbH+tLauuuuuuuuuuuuuuyqqwpuy",
"yuupuuuupuuuuuuuuuupxnbGH+tLCnnnnnnbpuuuuuuuuuupuy",
"wuuuuuuuuuuuuuuuuasscbbGH+eGbbbbbbbcpuuuuyyyyyyyyw",
"9yppppuupppppppppVZZsuuCH+1uuuuuuuuuuuupyqqqqqqqq9",
"9wwwwwwucccbbbbbcCnfauuCH+>wuuuuuuuuuuackjjjjjjjjd",
"0yyyyyyaCCmCCCZZZZbaaapCH+>quuuuuuuuuuaCZZZZZZZZZz",
"zCCCCCZCCfpuuiCCCCCCCnpCHO>qqqqqwppuqqwCZCCCCCCCCz",
"mHHHHHHGjapuupjjjGHHHGpjjO>qqqqquCCCbbbHHHHHHHHHHZ",
"AJJJJJJFuuuuuuuuuGJJJFuuyo>00000iJJJJJJJJJJJJJJJJN"
};
