/* XPM */
static const char *barrer_3_izq_50[] = {
/* columns rows colors chars-per-pixel */
"50 50 210 2 ",
"   c #3E3531",
".  c #4A342B",
"X  c #4F392E",
"o  c #50392F",
"O  c #553D31",
"+  c #613E37",
"@  c #45432D",
"#  c #4A443B",
"$  c #574639",
"%  c #5A553B",
"&  c #5E593E",
"*  c #674639",
"=  c #6D523B",
"-  c #627438",
";  c #13465E",
":  c #2F4B5C",
">  c #184D68",
",  c #17516D",
"<  c #27566E",
"1  c #385B6D",
"2  c #1C617E",
"3  c #2D657C",
"4  c #4E4D4D",
"5  c #5B4A40",
"6  c #5F5842",
"7  c #575448",
"8  c #585756",
"9  c #5B5B53",
"0  c #685547",
"q  c #625D41",
"w  c #645749",
"e  c #71544B",
"r  c #685855",
"t  c #656347",
"y  c #6B6549",
"u  c #6F6A4E",
"i  c #79634D",
"p  c #716B4E",
"a  c #6B704C",
"s  c #6D6855",
"d  c #65645C",
"f  c #726D52",
"g  c #7A6959",
"h  c #797657",
"j  c #76745B",
"k  c #79745C",
"l  c #485C69",
"z  c #556675",
"x  c #6A6B63",
"c  c #756E66",
"v  c #747265",
"b  c #7A7666",
"n  c #7C7C62",
"m  c #7C7B6B",
"M  c #727479",
"N  c #8E413B",
"B  c #885649",
"V  c #995149",
"C  c #845657",
"Z  c #A2574D",
"A  c #A45E53",
"S  c #976546",
"D  c #8A6956",
"F  c #837B5A",
"G  c #95755B",
"H  c #B56C46",
"J  c #B9734C",
"K  c #AF6F53",
"L  c #AB675A",
"P  c #847766",
"I  c #8A7D65",
"U  c #91776D",
"Y  c #AC7266",
"T  c #C4784E",
"R  c #C57B53",
"E  c #7D825C",
"W  c #7F8064",
"Q  c #87815F",
"!  c #9F8358",
"~  c #848365",
"^  c #888365",
"/  c #8B866C",
"(  c #8C886F",
")  c #958968",
"_  c #9B9468",
"`  c #898674",
"'  c #8E8B72",
"]  c #918D74",
"[  c #978A78",
"{  c #989375",
"}  c #9D9B71",
"|  c #959279",
" . c #9A947C",
".. c #AE8E69",
"X. c #B88467",
"o. c #B88875",
"O. c #A19A75",
"+. c #A5977C",
"@. c #B19479",
"#. c #A7A07A",
"$. c #AAA27C",
"%. c #B1A575",
"&. c #C78358",
"*. c #D38658",
"=. c #C78A63",
"-. c #C99669",
";. c #D79966",
":. c #C68D78",
">. c #E29C63",
",. c #C7A578",
"<. c #D7AA75",
"1. c #E5A96D",
"2. c #E5AB73",
"3. c #EAB675",
"4. c #F4C17E",
"5. c #296884",
"6. c #377289",
"7. c #51798A",
"8. c #707486",
"9. c #558594",
"0. c #76858C",
"q. c #708B97",
"w. c #5797A7",
"e. c #6F9EA6",
"r. c #7AB3BF",
"t. c #7DB6C2",
"y. c #88898C",
"u. c #999684",
"i. c #9D9A83",
"p. c #8C9494",
"a. c #A29483",
"s. c #A49C86",
"d. c #B39B8C",
"f. c #A5A182",
"g. c #ACA683",
"h. c #AFAA86",
"j. c #A6A28B",
"k. c #AAA58B",
"l. c #AEAA8A",
"z. c #B1AB86",
"x. c #B2AD8B",
"c. c #B8A88B",
"v. c #B5B08F",
"b. c #BAB18C",
"n. c #ABA694",
"m. c #AEA993",
"M. c #ADAA9C",
"N. c #B3AD92",
"B. c #BDAB93",
"V. c #B6B192",
"C. c #B9B596",
"Z. c #B6B19C",
"A. c #BAB69A",
"S. c #BDB99D",
"D. c #83A7A6",
"F. c #95A9AE",
"G. c #8FB3B6",
"H. c #A8A7A2",
"J. c #B7AFA6",
"K. c #BBB5A2",
"L. c #BEBBA1",
"P. c #B8B9AB",
"I. c #A6B2B2",
"U. c #CF9A88",
"Y. c #C6A78A",
"T. c #D7AE8C",
"R. c #C6B38B",
"E. c #C6AC95",
"W. c #D6AB94",
"Q. c #C7B59A",
"!. c #C2BA9C",
"~. c #D7B598",
"^. c #E4BE82",
"/. c #E1AA92",
"(. c #E4B899",
"). c #C2BEA3",
"_. c #CABAA5",
"`. c #C3BEAB",
"'. c #DCBFAF",
"]. c #EEBEA2",
"[. c #F0BFA3",
"{. c #DBC797",
"}. c #DCD09D",
"|. c #EAC586",
" X c #F2C789",
".X c #E4CA96",
"XX c #E9D19A",
"oX c #F3D596",
"OX c #C4C1A6",
"+X c #CAC2A7",
"@X c #C6C2AB",
"#X c #C9C5AE",
"$X c #D7C6A7",
"%X c #CAC6B1",
"&X c #CBC9B3",
"*X c #CAC9B8",
"=X c #D1CBB5",
"-X c #DBCDB3",
";X c #D2CEBB",
":X c #D7D1BD",
">X c #E8C4A5",
",X c #F5C8A8",
"<X c #E8D9A5",
"1X c #F5CEB1",
"2X c #EAE1AE",
"3X c #EFE4B2",
"4X c #8EBDC3",
"5X c #CAC8C1",
"6X c #D9D5C5",
"7X c #E4DAC7",
/* pixels */
"& & & & & & & & & & & & & & & & & & & & & & 6 6 q q q q q q 6 & & & & & & & & & & & & & & & & & & % ",
"y h h h F ( ( ( ( ( ( ( ( ( h F ( ( ( ( ' ( F ~ / ] ] ] ] ] ' ' ' ( ( ( h ~ ( ( ( ( ( ( ( ( ( ( j q ",
"p #.#.#.h.&X&X&X&X&X&X&X&X&Xg.x.&X&X&X&X&X&Xg.C.).;X;X;X;X;X&X&X&X&X&X%X#.A.&X&X&X&X&X&X&X&X&X&Xi.q ",
"y h.A.A.S.OXOX).z.V.S.S.S.S.V.V.S.S.S.S.L.).).L.l.m.m.m.N.Z.@XA.x.x.S.@XS.L.OXOXOXOXOXOXOXV.x.OX .q ",
"y x.S.).).).).S.$.x.C.C.C.A.A.A.A.A.A.S.).#X`. .] / / I ( ] N.A.z.z.A.).).).).).).).).).).x.l.).| q ",
"u A.#.V.C.C.C.C.C.C.C.C.S.OXOXOXOXOXOX@X&X%X+./ P D i i g P [ k.C.@XOX).OX).).).).).).).).).).).| q ",
"f A.#.V.A.S.S.S.S.S.S.C.A.S.S.S.S.S.).@X`.s.I i e 0 0 0 0 s I ] k.@X).S.S.S.S.S.S.S.S.S.S.V.x.).| q ",
"k A.#.V.A.).).).).).).C.C.C.C.C.A.A.L.L.+./ D e = * * $ # 7 g /  .@X).S.S.S.A.A.A.C.A.C.C.h.g.).| q ",
"k S.C.C.C.C.C.C.C.C.C.C.x.#.V.C.A.A.L.L.{ n 0 $ * O . .   # i P ' &X#X@X%X%X#X@XOXOX).).).).).).| q ",
"f S.l.A.S.S.S.S.S.S.S.z.g.#.V.C.A.A.L.L. .@.o.X.X.K K * . $ 0 s n 6X*XP.P.P.%X@X).V.).OXOXOXOXOX .q ",
"f A.#.A.).).).).).).).$.#.#.V.C.C.A.S.).N.~.>X,X,X(./.L * O $ 7 s F.F.G.I._.$XE.).l.).OXOXOXOXOX .q ",
"f ).).).).).).).).S.C.C.C.C.$.$.x.x.x.C.).s.d.T.:.A o.L + . B B $ 7.9.9.0.W.>X$XQ.%X#X).z.).@X@X .t ",
"f S.C.).).C.A.A.A.C.V.V.V.v.$.$.h.z.x.V.L.Z.`.>Xo.y.J.L B B L B 8 6.6.6.z :.W.>X~.Q.%X@XA.).A.).i.t ",
"k C.#.A.S.#.g.h.h.h.h.h.z.z.#.$.h.x.x.v.S.+XY.>XT.'.o.L L L A U 7.5.5.5.z Y L ~.(.W.B.%XA.m.V.@Xi.t ",
"k ).S.).S.h.h.h.h.h.h.h.h.z.h.h.z.g.g.g.V.R.W.X.Y ~.[.:.L L Z 0.6.2 2 < z d.6XY.o.Y.~. .{ j.OXN.( q ",
"f A.A.A.C.g.h.h.h.h.h.h.h.h.h.z.x.g.g.h.V.c.E.~.(./.(.:.A Z V 0.5., > < j.@X%X7X(.(.~.E.k.@X@Xg.^ q ",
"u O.#.#.#.#.g.z.h.h.h.h.h.h.z.x.x.x.x.x.C.).B.o.o.L A V N V Z 0.5., y.J.S.V.).E.:.~.W.B.;X%X).$.~ q ",
"u k.#.V.A.A.S.A.h.h.h.h.h.h.z.x.x.g.g.g.l.A.@X[ U x z 0 M V C 9.5.< M.S.v.A.%X .[ E.c.%X%X@X).#.~ q ",
"u k.g.A.L.).).).x.x.x.x.x.x.x.x.x.g.$.g.h.C.`.D.G.r.w., , r q.9.3 < M.A.S.&Xn.I s.B.@X@X).).).#.Q q ",
"u m.).v.h.h.A.).).).).).).).).).OXV.x.x.v.S.@XD.4Xt.w.6., , , 6.3 < M.6XZ./ s.k.L.V.z.g.$.A.S.#.Q q ",
"u k.V.x.h.z.v.V.V.V.V.V.V.V.V.A.).S.C.g.x.S.@XD.G.w.w.w.5., , , < 1 H.P.] s.L.C.z.g.C.C.C.S.!.#.Q q ",
"u l.x.x.x.x.x.x.x.x.x.x.x.x.x.V.).).S.$.x.S.@Xp.e.E.~.~.W.1 1 l l l m [ i.).A.h.g.$.A.).).).!.$.~ q ",
"u g.).).).).).).).).).).).).).).).).L.x.C.).%X0.9.W.].].[.1X1X1XW.P ` n.&X#X@Xx.x.x.x.V.).).).).| q ",
"h z.).).).).OX).).).).).).).).).C.A.C.x.S.#X*XM l U./.T././.].1X(.o.n.;X&X@XOXA.C.C.C.A.).).).).| q ",
"^ z.).).).).).).).).).).).).).S.x.x.x.z.!.Q.*Xe.7.L L L L L U.,X:.Y _.;X#XOX).).).).).).).).).).| q ",
"t u u u u p p p f f f f j j j k h k P [ +.K.5XI.3 > > ; : 4 Y U.L C p.n.` k f p u p p p u u u u t q ",
"' | | | | | | | |  . .u.i.i.i.i.i.s.j.M.`.P.5XI.1 : : l r r r D C l y.J.n.i. .| ] / / ( | | | | | ' ",
"@X&X&X&X&X&X&X&X&X&X&X;X&X;X=X;X;X;X=X6X*XH.F.p.8.M i D r 4 : 4 8 x m M.:X;X&X&X@XC.C.S.&X&X&X&X&XOX",
"V.S.OXOXOXOXV.z.!.!.).!.@X&X#X&X=X=X;X6XJ.y.y.8.M c 8 r 9 8 8 4 4 9 c ` m.%X@XOX).).).).OXOX).A.A.V.",
"V.S.).).).).V.x.).).!.@X#X=X;X;X$X$X:X7XH.d d r i s d x v c x d r 9 d m u.K.#XOX).).).).).).).C.C.N.",
"A.).).).).OXOXOX#X#X&X=X:X-X$X-X$X<XT.(.d.s P g 7 v P ` ' ' ` ` b x d b ` K.#XOXOX).).).).).).C.C.N.",
"V.A.A.A.A.S.).!.+X#X=X~.{..X.X2X<X.X-.<.-.P b d # ` j.).).L.j.u.` m x v ` Z.@X!.S.A.A.A.A.A.A.C.C.N.",
"N.C.A.A.A.S.).#X=X$XT.T.XX2XXX X X;.R &.=.-.` v 7 k.Z.).).).N.m.k.] m v m M.@XS.A.A.A.C.C.C.A.A.A.N.",
"N.A.A.S.S.C.#X-X-X.XXX$X<X3XoX X2.*.J &.=.[ m v q *X&X@XOXOX@X).@Xi.` m m m.&X).S.S.A.A.A.A.A.A.A.V.",
"N.A.S.).+XQ.{..XXXXX2X}.3X X4.3.;.J J X...b x d j &X@Xx.S.S.S.S.).j.' m b M.:X%X@X).L.S.S.L.).).).A.",
"V.S.).Q.~.{.XX<XoXoXXX}.oX X>.*.T J J X.E.b d d j &X).g.C.S.S.).OXs.` v x  .R.b.b.!.#X@X@X#XC.C.).).",
"f.V.!.R.<.<.^.|.|. X<X{.3.*.T H J J X.@.a.s d v I &X#X).).).).OX#Xi.m d 9 j O.%.%.%.%.%.%.C.$.{ O.C.",
"l.C.,.<.<.<.<.1.1.1.2.;.;.&.H H H S e w 5 $ 7 g F ).C.z.z.z.z.z.z.m d 8 4 4 F _ _ _ _ _ ) ) _ ) _ ) ",
"l.C.,.,.<.^.|.1.1.3.1.R T R H H H i X o o o O f F x.f._ } O.} } ) 9 r 0 0 0 * D p h ( ' ' ' ( ( ' ^ ",
"l.A.b.,.<.=.*.R 2.*.*.T H H H H S w $ O $ $ $ t a ' ' ' ' ' ' / j 8 7 $ O . O O # f ( ] ] ] ] ] ] ] ",
"l.V.S.b.Y.-.;.3.3.3.3.-.H H = t n / ^ P b k b j t ( ] ] ] ] ] ( j f $ . . . . . @ a W ' ] ' ' ] ] ] ",
"g.x.V.C.!.,.,.*.*.1.;.&.H S B n ' ] ] ] ] ] ] ~ t ( ' ] ] ] ' ( j E E n h h h n ~ ( ' ' ' ' ( ] ] ] ",
"g.x.x.V.A.Q.:.=.=.;.;.&.J S D n ] ] ] ] ] ' ' ~ - ^ ' ] ' ' ( ' ' ' ] ] ' ' ' ] ] ] ] ] ] ' ] ] ] @.",
"$.h.h.z.x.S.!.,.-.=.&.X.K G D I ( ' ' ' ' ' ' n 6 / ] ] ] ] ] ] ] ] [ [ ] ] [ ] ] ] [ [ { ]  .j.Z.L.",
"O.#.#.#.$.h.V.R.R.,.:...! ! G G G G I ) ) ) ) ) ! ( ] [ ] ] { {  .+.+.s.s.n.n.s.s.j.K.K.Z.Z.N.@XL.K.",
"V.C.C.C.A.A.S.).+X+X#X!.c.B.N.N.N.N.m.c.+.Q.Q.E.B.Z.B.B.l.m.N.S.@X@X@X@X`.%X%X%X#X#X).A.L.).A.A.V.g.",
"S.OX).).).).OXOX@X#X#XA.A.A.L.).).A.C.C.C.L.).Z.s.%X@XL.`.).).%X&X&X&X#X`.@X@X@X@X@XC.S.A.V.x.z.l.f.",
"S.OX).).).).).OXOXOXOXg.g.g.V.C.A.A.V.A.).C.C.m.j.;X&XA.@X@X@X@X@X@X@X#XS.L.L.L.OX&X%X#X@X@XOXOXOXS.",
").@X@X@X@X@X@X@X@X@X@XS.S.S.).OXOXN.g.z.N.N.V.s.` L.S.x.@X#X#X#X@XC.A.A.V.V.V.V.C.S.@X&X%X%X#X#X@XL.",
"P.%X%X%X%X%X#X#X#X#X#X#X%X%X%X%X&Xx.$.f.g.l.x. .k l.x.l.@X%X%X%X@Xl.l.l.x.x.x.x.x.z.@X&X%X%X%X%X%X`."
};
