/* XPM */
static const char *barrer_3_50[] = {
/* columns rows colors chars-per-pixel */
"50 50 210 2 ",
"   c #3E3531",
".  c #4A342B",
"X  c #4F392E",
"o  c #50392F",
"O  c #553D31",
"+  c #613E37",
"@  c #45432D",
"#  c #4A443B",
"$  c #574639",
"%  c #5A553B",
"&  c #5E593E",
"*  c #674639",
"=  c #6D523B",
"-  c #627438",
";  c #13465E",
":  c #2F4B5C",
">  c #184D68",
",  c #17516D",
"<  c #27566E",
"1  c #385B6D",
"2  c #1C617E",
"3  c #2D657C",
"4  c #4E4D4D",
"5  c #5B4A40",
"6  c #5F5842",
"7  c #575448",
"8  c #585756",
"9  c #5B5B53",
"0  c #685547",
"q  c #625D41",
"w  c #645749",
"e  c #71544B",
"r  c #685855",
"t  c #656347",
"y  c #6B6549",
"u  c #6F6A4E",
"i  c #79634D",
"p  c #716B4E",
"a  c #6B704C",
"s  c #6D6855",
"d  c #65645C",
"f  c #726D52",
"g  c #7A6959",
"h  c #797657",
"j  c #76745B",
"k  c #79745C",
"l  c #485C69",
"z  c #556675",
"x  c #6A6B63",
"c  c #756E66",
"v  c #747265",
"b  c #7A7666",
"n  c #7C7C62",
"m  c #7C7B6B",
"M  c #727479",
"N  c #8E413B",
"B  c #885649",
"V  c #995149",
"C  c #845657",
"Z  c #A2574D",
"A  c #A45E53",
"S  c #976546",
"D  c #8A6956",
"F  c #837B5A",
"G  c #95755B",
"H  c #B56C46",
"J  c #B9734C",
"K  c #AF6F53",
"L  c #AB675A",
"P  c #847766",
"I  c #8A7D65",
"U  c #91776D",
"Y  c #AC7266",
"T  c #C4784E",
"R  c #C57B53",
"E  c #7D825C",
"W  c #7F8064",
"Q  c #87815F",
"!  c #9F8358",
"~  c #848365",
"^  c #888365",
"/  c #8B866C",
"(  c #8C886F",
")  c #958968",
"_  c #9B9468",
"`  c #898674",
"'  c #8E8B72",
"]  c #918D74",
"[  c #978A78",
"{  c #989375",
"}  c #9D9B71",
"|  c #959279",
" . c #9A947C",
".. c #AE8E69",
"X. c #B88467",
"o. c #B88875",
"O. c #A19A75",
"+. c #A5977C",
"@. c #B19479",
"#. c #A7A07A",
"$. c #AAA27C",
"%. c #B1A575",
"&. c #C78358",
"*. c #D38658",
"=. c #C78A63",
"-. c #C99669",
";. c #D79966",
":. c #C68D78",
">. c #E29C63",
",. c #C7A578",
"<. c #D7AA75",
"1. c #E5A96D",
"2. c #E5AB73",
"3. c #EAB675",
"4. c #F4C17E",
"5. c #296884",
"6. c #377289",
"7. c #51798A",
"8. c #707486",
"9. c #558594",
"0. c #76858C",
"q. c #708B97",
"w. c #5797A7",
"e. c #6F9EA6",
"r. c #7AB3BF",
"t. c #7DB6C2",
"y. c #88898C",
"u. c #999684",
"i. c #9D9A83",
"p. c #8C9494",
"a. c #A29483",
"s. c #A49C86",
"d. c #B39B8C",
"f. c #A5A182",
"g. c #ACA683",
"h. c #AFAA86",
"j. c #A6A28B",
"k. c #AAA58B",
"l. c #AEAA8A",
"z. c #B1AB86",
"x. c #B2AD8B",
"c. c #B8A88B",
"v. c #B5B08F",
"b. c #BAB18C",
"n. c #ABA694",
"m. c #AEA993",
"M. c #ADAA9C",
"N. c #B3AD92",
"B. c #BDAB93",
"V. c #B6B192",
"C. c #B9B596",
"Z. c #B6B19C",
"A. c #BAB69A",
"S. c #BDB99D",
"D. c #83A7A6",
"F. c #95A9AE",
"G. c #8FB3B6",
"H. c #A8A7A2",
"J. c #B7AFA6",
"K. c #BBB5A2",
"L. c #BEBBA1",
"P. c #B8B9AB",
"I. c #A6B2B2",
"U. c #CF9A88",
"Y. c #C6A78A",
"T. c #D7AE8C",
"R. c #C6B38B",
"E. c #C6AC95",
"W. c #D6AB94",
"Q. c #C7B59A",
"!. c #C2BA9C",
"~. c #D7B598",
"^. c #E4BE82",
"/. c #E1AA92",
"(. c #E4B899",
"). c #C2BEA3",
"_. c #CABAA5",
"`. c #C3BEAB",
"'. c #DCBFAF",
"]. c #EEBEA2",
"[. c #F0BFA3",
"{. c #DBC797",
"}. c #DCD09D",
"|. c #EAC586",
" X c #F2C789",
".X c #E4CA96",
"XX c #E9D19A",
"oX c #F3D596",
"OX c #C4C1A6",
"+X c #CAC2A7",
"@X c #C6C2AB",
"#X c #C9C5AE",
"$X c #D7C6A7",
"%X c #CAC6B1",
"&X c #CBC9B3",
"*X c #CAC9B8",
"=X c #D1CBB5",
"-X c #DBCDB3",
";X c #D2CEBB",
":X c #D7D1BD",
">X c #E8C4A5",
",X c #F5C8A8",
"<X c #E8D9A5",
"1X c #F5CEB1",
"2X c #EAE1AE",
"3X c #EFE4B2",
"4X c #8EBDC3",
"5X c #CAC8C1",
"6X c #D9D5C5",
"7X c #E4DAC7",
/* pixels */
"% & & & & & & & & & & & & & & & & & & 6 q q q q q q 6 6 & & & & & & & & & & & & & & & & & & & & & & ",
"q j ( ( ( ( ( ( ( ( ( ( ~ h ( ( ( ' ' ' ] ] ] ] ] / ~ F ( ' ( ( ( ( F k ( ( ( ( ( ( ( ( ( F h h h y ",
"q i.&X&X&X&X&X&X&X&X&X&XA.#.%X&X&X&X&X&X;X;X;X;X;X).C.g.&X&X&X&X&X&Xx.g.&X&X&X&X&X&X&X&X&Xh.#.#.#.p ",
"q  .OXx.V.OXOXOXOXOXOXOXL.S.@XS.x.x.A.@XZ.N.m.m.m.l.L.).).L.S.S.S.S.V.V.S.S.S.S.V.z.).OXOXS.A.A.h.y ",
"q | ).l.x.).).).).).).).).).).A.z.z.A.N.] ( I / / ]  .`.#X).S.A.A.A.A.A.A.C.C.C.x.$.S.).).).).S.x.y ",
"q | ).).).).).).).).).).).OX).OX@XC.k.[ P g i i D P / +.%X&X@XOXOXOXOXOXOXS.C.C.C.C.C.C.C.C.V.#.A.u ",
"q | ).x.V.S.S.S.S.S.S.S.S.S.S.).@Xk.] I s 0 0 0 0 e i I s.`.@X).S.S.S.S.S.A.C.S.S.S.S.S.S.A.V.#.A.f ",
"q | ).g.h.C.C.A.C.A.A.A.S.S.S.).@X ./ g 7 # $ * * = e D / +.L.L.A.A.C.C.C.C.C.).).).).).).A.V.#.A.k ",
"q | ).).).).).).OXOX@X#X%X%X@X#X&X' P i #   . . O * $ 0 n { L.L.A.A.C.V.#.x.C.C.C.C.C.C.C.C.C.C.S.k ",
"q  .OXOXOXOXOX).V.).@X%XP.P.P.*X6Xn s 0 $ . * K K X.X.o.@. .L.L.A.A.C.V.#.g.z.S.S.S.S.S.S.S.A.l.S.f ",
"q  .OXOXOXOXOX).l.).E.$X_.I.G.F.F.s 7 $ O * L /.(.,X,X>X~.N.).S.A.C.C.V.#.#.$.).).).).).).).A.#.A.f ",
"t  .@X@X).z.).#X%XQ.$X>XW.0.9.9.7.$ B B . + L o.A :.T.d.s.).C.x.x.x.$.$.C.C.C.C.S.).).).).).).).).f ",
"t i.).A.).A.@X%XQ.~.>XW.:.z 6.6.6.8 B L B B L J.y.o.>X`.Z.L.V.x.z.h.$.$.v.V.V.V.C.A.A.A.C.).).C.S.f ",
"t i.@XV.m.A.%XB.W.(.~.L Y z 5.5.5.7.U A L L L o.'.T.>XY.+XS.v.x.x.h.$.#.z.z.h.h.h.h.h.g.#.S.A.#.C.k ",
"q ( N.OXj.{  .~.Y.o.Y.6Xd.z < 2 2 6.0.Z L L :.[.~.Y X.W.R.V.g.g.g.z.h.h.z.h.h.h.h.h.h.h.h.S.).S.).k ",
"q ^ g.@X@Xk.E.~.(.(.7X%X@Xj.< > , 5.0.V Z A :.(./.(.~.E.c.V.h.g.g.x.z.h.h.h.h.h.h.h.h.h.g.C.A.A.A.f ",
"q ~ $.).%X;XB.W.~.:.E.).V.S.J.y., 5.0.Z V N V A L o.o.B.).C.x.x.x.x.x.z.h.h.h.h.h.h.z.g.#.#.#.#.O.u ",
"q ~ #.).@X%X%Xc.E.[  .%XA.v.S.M.< 5.9.C V M 0 z x U [ @XA.l.g.g.g.x.x.z.h.h.h.h.h.h.A.S.A.A.V.#.k.u ",
"q Q #.).).).@X@XB.s.I n.&XS.A.M.< 3 9.q.r , , w.r.G.D.`.C.h.g.$.g.x.x.x.x.x.x.x.x.x.).).).L.A.g.k.u ",
"q Q #.S.A.$.g.z.V.L.k.s./ Z.6XM.< 3 6., , , 6.w.t.4XD.@XS.v.x.x.V.OX).).).).).).).).).A.h.h.v.).m.u ",
"q Q #.!.S.C.C.C.g.z.C.L.s.] P.H.1 < , , , 5.w.w.w.G.D.@XS.x.g.C.S.).A.V.V.V.V.V.V.V.V.v.z.h.x.V.k.u ",
"q ~ $.!.).).).A.$.g.h.A.).i.[ m l l l 1 1 W.~.~.E.e.p.@XS.x.$.S.).).V.x.x.x.x.x.x.x.x.x.x.x.x.x.l.u ",
"q | ).).).).V.x.x.x.x.@X#X&Xn.` P W.1X1X1X[.].].W.9.0.%X).C.x.L.).).).).).).).).).).).).).).).).g.u ",
"q | ).).).).A.C.C.C.A.OX@X&X;Xn.o.(.1X]././.T./.U.l M *X#XS.x.C.A.C.).).).).).).).).).OX).).).).z.h ",
"q | ).).).).).).).).).).OX#X;X_.Y :.,XU.L L L L L 7.e.*XQ.!.z.x.x.x.S.).).).).).).).).).).).).).z.^ ",
"q t u u u u p p p u p f k ` n.p.C L U.Y 4 : ; > > 3 I.5XK.+.[ P k h k j j j f f f f p p p u u u u t ",
"' | | | | | ( / / ] |  .i.n.J.y.l C D r r r l : : 1 I.5XP.`.M.j.s.i.i.i.i.i.u. . .| | | | | | | | ' ",
"OX&X&X&X&X&XS.C.C.@X&X&X;X:XM.m x 8 4 : 4 r D i M 8.p.F.H.*X6X=X;X;X;X=X;X&X;X&X&X&X&X&X&X&X&X&X&X@X",
"V.A.A.).OXOX).).).).OX@X%Xm.` c 9 4 4 8 8 9 r 8 c M 8.y.y.J.6X;X=X=X&X#X&X@X!.).!.!.z.V.OXOXOXOXS.V.",
"N.C.C.).).).).).).).OX#XK.u.m d 9 r d x c v x d s i r d d H.7X:X$X$X;X;X=X#X@X!.).).x.V.).).).).S.V.",
"N.C.C.).).).).).).OXOX#XK.` b d x b ` ` ' ' ` P v 7 g P s d.(.T.<X$X-X$X-X:X=X&X#X#XOXOXOX).).).).A.",
"N.C.C.A.A.A.A.A.A.S.!.@XZ.` v x m ` u.j.L.).).j.` # d b P -.<.-..X<X2X.X.X{.~.=X#X+X!.).S.A.A.A.A.V.",
"N.A.A.A.C.C.C.A.A.A.S.@XM.m v m ] k.m.N.).).).Z.k.7 v ` -.=.&.R ;. X XXX2XXXT.T.$X=X#X).S.A.A.A.C.N.",
"V.A.A.A.A.A.A.A.S.S.).&Xm.m m ` i.@X).@XOXOX@X&X*Xq v m [ =.&.J *.2. XoX3X<X$XXX.X-X-X#XC.S.S.A.A.N.",
"A.).).).L.S.S.L.).@X%X:XM.b m ' j.).S.S.S.S.x.@X&Xj d x b ..X.J J ;.3.4. X3X}.2XXXXX.X{.Q.+X).S.A.N.",
").).C.C.#X@X@X#X!.b.b.R. .x v ` s.OX).S.S.C.g.).&Xj d d b E.X.J J T *.>. XoX}.XXoXoX<XXX{.~.Q.).S.V.",
"C.O.{ $.C.%.%.%.%.%.%.O.j 9 d m i.#XOX).).).).#X&XI v d s a.@.X.J J H T *.3.{.<X X|.|.^.<.<.R.!.V.f.",
") _ ) _ ) ) _ _ _ _ _ F 4 4 8 d m z.z.z.z.z.z.C.).F s 7 $ 5 w e S H H H &.;.;.2.1.1.1.<.<.<.<.,.C.l.",
"^ ' ( ( ' ' ' ( k p D * 0 0 0 r 9 ) } } O.} _ f.x.F f O o o X X i H H H R T R 1.3.1.1.|.^.<.,.,.C.l.",
"] ] ] ] ] ] ] ( f # O O . O $ 7 8 j / ' ' ' ' ' ' a t $ $ $ O $ w S H H H H T *.*.2.R *.=.<.,.b.A.l.",
"] ] ] ' ' ] ' W a @ . . . . . $ f j ( ] ] ] ] ] ( t j b k b P ^ / n t = H H -.3.3.3.3.;.-.Y.b.S.V.l.",
"] ] ] ( ' ' ' ' ( ~ n k k k n E E j ( ' ] ] ] ' ( t ~ ] ] ] ] ] ] ' n B S H &.;.1.*.*.,.,.!.C.V.x.g.",
"@.] ] ] ' ] ] ] ] ] ] ' ' ' ] ] ' ' ' ( ' ' ] ' ^ - ~ ' ' ] ] ] ] ] n D S J &.;.;.=.=.:.Q.A.V.x.x.g.",
"L.Z.j. .] { [ [ ] ] ] [ ] ] [ [ ] ] ] ] ] ] ] ] / 6 n ' ' ' ' ' ' ' I D G K X.&.=.-.,.!.S.x.z.h.h.$.",
"K.L.@XN.Z.Z.K.K.j.s.s.n.n.s.s.+.+. .{ { ] ] [ ] ( ! ) ) ) ) ) I G G G G ! ! ..:.,.R.R.V.h.$.#.#.#.O.",
"g.V.A.A.).L.A.).#X#X%X%X%X`.@X@X@X@XS.N.m.l.B.B.Z.B.E.Q.Q.+.c.m.N.N.N.N.B.c.!.#X+X+X).S.A.A.C.C.C.V.",
"f.l.z.x.V.A.S.C.@X@X@X@X@X`.#X&X&X&X%X).).`.L.@X%Xs.Z.).L.C.C.C.A.).).L.A.A.A.#X#X@XOXOX).).).).OXS.",
"S.OXOXOX@X@X#X%X&XOXL.L.L.S.#X@X@X@X@X@X@X@XA.&X;Xj.m.C.C.).A.V.A.A.C.V.g.g.g.OXOXOXOX).).).).).OXS.",
"L.@X#X#X%X%X&X@XS.C.V.V.V.V.A.A.C.@X#X#X#X@Xx.S.L.` s.V.N.N.z.g.N.OXOX).S.S.S.@X@X@X@X@X@X@X@X@X@X).",
"`.%X%X%X%X%X&X@Xz.x.x.x.x.x.l.l.l.@X%X%X%X@Xl.x.l.k  .x.l.g.f.$.x.&X%X%X%X%X#X#X#X#X#X#X%X%X%X%X%XP."
};
