/* XPM */
static const char *ladrillo_1_50[] = {
/* columns rows colors chars-per-pixel */
"50 50 92 1 ",
"  c #3B3B3B",
". c #742402",
"X c #7A2602",
"o c #7E2905",
"O c #7D2B0B",
"+ c #6C2915",
"@ c #672B1A",
"# c #692B1A",
"$ c #732B14",
"% c #7D3016",
"& c #7C361E",
"* c #5E3027",
"= c #56342E",
"- c #5C322A",
"; c #453734",
": c #4C3633",
"> c #443937",
", c #493835",
"< c #423A38",
"1 c #543530",
"2 c #5B3832",
"3 c #632E21",
"4 c #683224",
"5 c #6D3528",
"6 c #743323",
"7 c #842A04",
"8 c #8C2D03",
"9 c #812B08",
"0 c #902F04",
"q c #82300E",
"w c #89300A",
"e c #923006",
"r c #963409",
"t c #99360B",
"y c #97380F",
"u c #9D390E",
"i c #873617",
"p c #893515",
"a c #953710",
"s c #933815",
"d c #9C3A12",
"f c #903B1B",
"g c #A03B0F",
"h c #A43D11",
"j c #92401F",
"k c #A74014",
"l c #AC4215",
"z c #AF4518",
"x c #B14517",
"c c #B14618",
"v c #B3491B",
"b c #8B462D",
"n c #944323",
"m c #97492D",
"M c #A14724",
"N c #AE4F28",
"B c #B64E22",
"V c #B84F24",
"C c #B75025",
"Z c #B95126",
"A c #B35028",
"S c #B6522A",
"D c #BB5328",
"F c #BA5429",
"G c #BB552B",
"H c #BC552B",
"J c #BE592F",
"K c #AC5633",
"L c #B35732",
"P c #B65A35",
"I c #BF5B31",
"U c #BA5C35",
"Y c #C15B32",
"T c #C15D33",
"R c #C35F36",
"E c #C46137",
"W c #C66339",
"Q c #C7643B",
"! c #C2653F",
"~ c #C8653B",
"^ c #C9663C",
"/ c #CA683E",
"( c #CB6A40",
") c #CD6B41",
"_ c #CE6C42",
"` c #CF6E44",
"' c #D06F45",
"] c #CF7149",
"[ c #D17045",
"{ c #D27249",
"} c #D47349",
"| c #D47449",
/* pixels */
"]{{{{{{{{{`cczX3 +n{{{{Iv{{{{{{{{{{{{{{vcc9# #i{{{",
"RRR[_R'`RRTckd.3 +n}{{{TcRRR[_RR~}^RRRRckho# #i{{{",
"zcc[~c))ccccu8.3 +n}{{{Ycccc'^ccZ}Jccccch8X# #i{}{",
"zcxvccvcccl888.3 +n|Hvvcv[Rccccccvcv[Rc088X# #i{Rc",
"zkhhkchhhhh888.3 +fQBxhhhUSchhhllhhkUNh888X# #pWAh",
"ch88tcr8888888.3 +wxcl8888gc088kk888888888X# #9xu8",
"ooXXo9XXXXXXXX,< >=999XXXXo9XXXooXXXXXXXXX1> >19oX",
"##############    ,#######################>   >###",
"                                                  ",
"@##    ,##################=    3##################",
"o99:> >=iiiiiiiiiiiiiiiq994>  >&iiiiiiiiiiiiiiio9o",
"zxcX3 #j}{{{{{{{{{{{{{{Yxcy.>=.!{{{{{{{{{{{{{{_ccc",
"zkuX3 #j{QR{{{{{{{`TTTTCxuw.>=.!{{{{{{{TTT[`T__ccc",
"zg8.3 +j{JB{{[{{{{/vccccl87.>=.!{{{{[[[vcx_/c/_ccc",
"zg8.3 +j{{[{RvvvvvH{Dccu887.>=.!{{{'vvv[Wccccccccc",
"dr8.3 +j{{[EFcTFccBEBcchu87.>=.!'EERccc[Wcclhlcccc",
"888.3 +j{}'ccc}Wccccccccc87.>=.!(xccxcc[Qcck8kcccc",
"888.3 +j{IvcR'Bvcckeercue87.>=.!{[Hv'Tcvvcrtltrcue",
"888.@ +j{JccJ^clhhhttuht887.>=.U^^DvEFchhhtuhuuht8",
"888.3 #j{Jccccch88tccl88887.>=.kxccl8hc888lk8kl888",
"888.3 #pFvlrttte880ttr88887.>=.hltrr8er888rr8rr888",
"777+* 3%kkh777777777777777O+<:#dh77777777777777777",
"...<   :..................*    #..................",
"===    <==================,    :==================",
"><<<<<<      <<<<<<<<<<<<<<<>><><     <<<<<<<<<<<<",
".......#    58888888888888888888%    *............",
"KMaaaaai*><5mLLLLLLLLLLLLhhhhhhgs-, *bKKKKKKKKKKKK",
"{Rccccch.1>8P{{{{{{{{{{{[vcccccxk.1>.K}{{{{{{{{}{{",
"cR[vccch.1>8P{{{|VvvvvvvvcR[vh8kk.1>.K}{{{{)v/_vvv",
"cH~vlhhu.1>8P{{_QIFcHHcDJcHQvkuhu.1>.K}{{{^TcREcZI",
"cccxh887.1>8P{|Wx`(x(`xQ[ccccccr7.1>.K}{{|BcxccxW{",
"zccclke7.1>8P{ZT_FJ_JH_TCcccckr88.1>.K}{^ZcZ_DB_RV",
"zccclke7.1,8P{vH)vZ)ZB)Hccccckr88.1>.K}{WcCY{TF)Hc",
"zccch887.1,8P{vcccccxccccccccccr8.1>.K{{Wx_{}{_ccc",
"zcctr887.1,8P{vH/vccEWcccccctgcr8.1>.K{HVcDT{RDccc",
"zccree87.1,8P{vJ'ZBB^/ccccccetcr8.1>.K{vvBcZ`Dcccc",
"zcccccr7.1>8P{vcc_}}Fcccccccetcr8.1>.K{vY|Bccccccc",
"zccckue7.1>8P{vcxITTBccccccchhcr8.1>.K{vY|Bccccccc",
"zxxch887.1>8P{vccccccccccxcccccr8.1>.K{vI{Bccccccc",
"zh8lh887.1>8P[vY[Bccccccl0hcch888.1>.K{vcvcccccccc",
"ckuht887.1>8NEcDWvlhllhkxukcht888.1>.K{vccccchhckh",
"zcc08887.1>8hccccck8kl8hcccce8888.1>.K}vccccctecu8",
"eee88887.1>8hcchelclxxlzleee88888.1>.dvchelccllcll",
"88888887.1>8hcch8hkkkkkkh88888888.1>.acch8hkkkkkkh",
"88888887.1>8hcch88888888888888887.1>.acch888888888",
"XXXXXXX$1< 26ww9XXXXXXXXXXXXXXXX$1< :6ww9XXXXXXXXX",
"#++++++3    -++++++++++++++++++#3    =++++++++++++",
"                                                  ",
"33333333333333    ,33333333333333333333333<   <333",
"..............    :.......................;   ;..."
};
