/* XPM */
static const char *moneda_1_50[] = {
/* columns rows colors chars-per-pixel */
"50 50 237 2 ",
"   c #4B2524",
".  c #542A25",
"X  c #5B372A",
"o  c #683B2B",
"O  c #6B3C2F",
"+  c #5A553B",
"@  c #5E593E",
"#  c #6F4A2F",
"$  c #73462A",
"%  c #7B5427",
"&  c #6D4934",
"*  c #765632",
"=  c #7B5D35",
"-  c #7D643B",
";  c #625D40",
":  c #675C56",
">  c #785D55",
",  c #6B674A",
"<  c #7F664D",
"1  c #6E6955",
"2  c #756B53",
"3  c #797558",
"4  c #6D6867",
"5  c #7B6667",
"6  c #747768",
"7  c #747879",
"8  c #A6751C",
"9  c #855B2B",
"0  c #8C5533",
"q  c #966929",
"w  c #9D7329",
"e  c #896535",
"r  c #946434",
"t  c #887437",
"y  c #9B7A35",
"u  c #A27728",
"i  c #A47833",
"p  c #815A48",
"a  c #8E6E4C",
"s  c #867A5D",
"d  c #A37B54",
"f  c #857768",
"g  c #937B64",
"h  c #877472",
"j  c #79827B",
"k  c #B98B1A",
"l  c #B1862E",
"z  c #B68C29",
"x  c #BC982D",
"c  c #A58739",
"v  c #AB973D",
"b  c #BB983A",
"n  c #CE9A05",
"m  c #D19907",
"M  c #C88F12",
"N  c #D9A817",
"B  c #E3B11D",
"V  c #C59C2E",
"C  c #C89C39",
"Z  c #D9AA2A",
"A  c #DCB327",
"S  c #C7A935",
"D  c #C6A837",
"F  c #C5A53C",
"G  c #D4AB3A",
"H  c #D9B637",
"J  c #E2BE28",
"K  c #E3BB37",
"L  c #ECCB28",
"P  c #E6C638",
"I  c #F2DA3A",
"U  c #F7E03D",
"Y  c #87815F",
"T  c #9F8152",
"R  c #A78945",
"E  c #B3894D",
"W  c #AE9548",
"Q  c #B59748",
"!  c #A58658",
"~  c #AD9456",
"^  c #B4995A",
"/  c #BAA34C",
"(  c #8A8464",
")  c #888369",
"_  c #8C886F",
"`  c #98886B",
"'  c #8A8878",
"]  c #978972",
"[  c #979175",
"{  c #9A9577",
"}  c #959279",
"|  c #A79769",
" . c #B1946A",
".. c #A19B75",
"X. c #A59679",
"o. c #BBA86F",
"O. c #A7A07A",
"+. c #A9A27C",
"@. c #C79C48",
"#. c #C7AB46",
"$. c #D0A64E",
"%. c #C9B44A",
"&. c #DABB46",
"*. c #CAB754",
"=. c #D5BC54",
"-. c #E2BD45",
";. c #D6AA65",
":. c #CEB46B",
">. c #D6C24C",
",. c #CEC551",
"<. c #D7C555",
"1. c #E7C846",
"2. c #E9D44A",
"3. c #F3DB49",
"4. c #E5C956",
"5. c #EAD757",
"6. c #F3DD55",
"7. c #F6E34C",
"8. c #F8E64A",
"9. c #EEE453",
"0. c #F6E457",
"q. c #F9E555",
"w. c #FAEA55",
"e. c #F9E65A",
"r. c #FAEA59",
"t. c #DAC565",
"y. c #D6C777",
"u. c #E5CD66",
"i. c #EBD464",
"p. c #F2D967",
"a. c #E7CC7B",
"s. c #EAD77B",
"d. c #F2DD74",
"f. c #F1DB7B",
"g. c #F6E66D",
"h. c #F5E474",
"j. c #F7E779",
"k. c #7F8683",
"l. c #878B84",
"z. c #938E83",
"x. c #8C958A",
"c. c #939384",
"v. c #959A8E",
"b. c #999B89",
"n. c #8E9895",
"m. c #959D96",
"M. c #9A9D94",
"N. c #A09C8D",
"B. c #9FA087",
"V. c #9CA18D",
"C. c #9BA597",
"Z. c #9EA595",
"A. c #9CA29A",
"S. c #A4A284",
"D. c #ABA682",
"F. c #AEAA86",
"G. c #A3A58C",
"H. c #ACAA8B",
"J. c #A8A88C",
"K. c #B0AB87",
"L. c #B2AD8B",
"P. c #B9B28C",
"I. c #A2A693",
"U. c #A6AA93",
"Y. c #ACAC93",
"T. c #A0A59A",
"R. c #A4AB9B",
"E. c #AAAE9C",
"W. c #B1AE91",
"Q. c #B6A998",
"!. c #ACB19D",
"~. c #B5B294",
"^. c #B9B596",
"/. c #B4B49A",
"(. c #BAB69A",
"). c #BDBA9D",
"_. c #AAADA5",
"`. c #B0A8A0",
"'. c #B3ACAC",
"]. c #ACB2A2",
"[. c #A9B5AA",
"{. c #B2B5A3",
"}. c #B5B9A5",
"|. c #BCBBA3",
" X c #B7B8AA",
".X c #BCBBB3",
"XX c #CEB998",
"oX c #E0BC89",
"OX c #C1BEA2",
"+X c #C0BFA4",
"@X c #C3BFA4",
"#X c #C4BAAB",
"$X c #C2BDB7",
"%X c #D1C696",
"&X c #E7CC85",
"*X c #EAD688",
"=X c #F3DD85",
"-X c #ECD290",
";X c #F4E28B",
":X c #F7EA89",
">X c #EFE097",
",X c #F4E494",
"<X c #F4E69A",
"1X c #C3C1A6",
"2X c #C5C4AB",
"3X c #C8C6AF",
"4X c #D5C6A5",
"5X c #C8C4B6",
"6X c #CBC9B3",
"7X c #CCC9B3",
"8X c #D8CFB3",
"9X c #EADAA5",
"0X c #E6D3B2",
"qX c #F6E9A9",
"wX c #EEE8B8",
"eX c #F5EAB3",
"rX c #F8EDB7",
"tX c #FAF3BD",
"yX c #CDC9C6",
"uX c #D3CAC2",
"iX c #D1CCCA",
"pX c #DAD4C6",
"aX c #DAD6D3",
"sX c #E4D8C5",
"dX c #E8DDD0",
"fX c #EAE3CB",
"gX c #F4EBC9",
"hX c #FBF5C7",
"jX c #EBE7DA",
"kX c #F2ECD8",
"lX c #FBF4D9",
"zX c #ECEAE8",
"xX c #F1EFE3",
"cX c #FAF5E3",
"vX c #F8F7E6",
"bX c #F9F9F5",
"nX c #FDFDF5",
/* pixels */
"+ @ @ @ @ @ @ @ @ @ @ @ @ @ @ @ @ @ @ @ @ @ @ @ @ @ @ @ @ @ @ @ @ @ @ @ @ @ @ @ @ @ @ @ @ @ @ @ @ + ",
"; 3 _ _ _ _ _ _ _ _ _ _ ) 3 _ _ _ _ _ _ _ _ _ _ _ ( s 3 _ _ _ _ _ _ s 3 _ _ _ _ _ _ _ _ _ s 3 3 3 3 ",
"; b.6X7X7X6X6X6X6X6X6X6X^.O.6X7X7X7X7X7X6X6X6X6X6X^.K.O.3X6X6X6X6X6XL.D.7X6X6X6X7X7X6X7X6XF.O.O.O...",
"; } 1XL.~.1X1X1X1X1X1X1X|.).1X).K.K.L.).).).).).).^.~.~.).).).).).).~.~.).).).).~.K.@X1X1X).).).F...",
"; } @XF.L.@X@X@X@X@X@X@X@X@X@X^.D.O.D.^.^.^.~.^.^.^.^.^.^.^.^.^.^.^.^.^.^.^.^.^.L.+.).@X@X@X@X).L.O.",
"; } @X@X@X@X@X@X@X@X@X@X@X@X@X@X@XD.D.^.^.~.O.~.@X@X@X@X@X@X@X@X1X1X1X1X1X).^.^.^.^.^.^.^.^.~.O.^.(.",
"; } @XL.~.).).).).).).).).).).).).L.W././.~.W./.(.H.~.(.(.(.(.(.).).).).).^.^.).).).).).).^.~.O.^.(.",
"; } @XD.F.^.^.^.^.^.^.^.^.^.^./././././././././.!.S.Y./././././././.^.^.^.^.^.@X@X@X@X@X@X^.~.O.^.(.",
"; } @X@X@X@X@X@X@X@X@X@X@X@X^././././.!.!.E.V.R.].!.!.E.E.!.!./././.^.~.O.L.^.^.^.^.^.^.^.^.^.^.).(.",
"; } @X@X@X@X@X@XL.^.).).(.(././.!.!.].R.c.' ) ' ' ' ' ' S.!.!.].!././.~.O.D.K.).).).).).).).^.F.).(.",
"; } @X@X@X@X@X).O.L.^.^.~./.!.!.R.Z.N.Q.sXkXxXxXxXxXxX-Xz.] g [ R.E.!.~.S.O.+.@X@X@X@X@X@X@X).O.^.(.",
"; } @X@X^.+.).@X@X@X).S.J.!.E.C._ {.fXgXqXh.d.d.d.d.h.<XkX4X+.o.! O.V.G./.~.^.^.).@X@X@X@X@X@X@X@X(.",
"; } @X1X^.O.~.^.^.^./.S.G.R.v..X6XqXp.t.%.F x z z x #.*.i.h.:Xy.@.~ ..M.E.Y.~.~.^.^.^.^.^.@X@X^.|.(.",
"; } @X1X^.O.D.F.F.F.H.B.V.l. X9X,X=.R u x F *.*.*.*.b l y #.i.g.i.Q W ` Z.U.J.H.F.F.F.D.O.).).O.^.(.",
"; ( D.).^.O.F.F.F.H.J.I.c. XwXg.G e D 9XcXcXlXcXrX0.6.3.1.x e H j.p.W / g Z.U.J.F.F.F.F.K.).@XOX@X(.",
"; Y O.).).K.L.W.J.J.I.M.{.wXp.D * a.vXnXnX;XcX:X0.q.q.q.q.r.P y F g.5.R < [ Z.U.J.F.F.F.F.^.^.^.^.W.",
"; Y O.OX@X@X@X(.S.V.c. XkX=XC q 4.tX:Xj.e.e.e.q.q.q.q.q.q.r.r.q.Q %.g.5.R ^ [ Z.J.F.F.D.O.O.O.O.O...",
"; Y O.).@X@X@X|./.R.f xX<XF u 1.tXtXj.5.*.*.9.w.q.r.=.*.*.*.5.w.6.b t.g.G a ~ b.U.J.^.).^.^.~.O.~.~.",
"; Y O.|.@X(.(./.].M..XkX<.# #.0.qXe.5.^.iXo.v q.r.,.#XiXiXyXP.P e.2.Q *Xp.E ! ..T.Y.|.@X|.|.^.D.^.(.",
"; Y O.|.^.O.O.S.V.' aXf.l q 1.e.e.6.X.bXnXa.o 8.>.5XbXeX>XeX>Xc -.q.v $.j.#.! | ].}.|.(.F.F.W.@X@X(.",
"; Y O.).).~./.Y.V.c.pX<.O #.q.q.w.~ nXhXtXa.X 2.#XnXqX& % | wXp.e P q.t rX2.R ~ ` E.~.~.F.F.L.~.).(.",
"; ( +.).@X|.|.].c.5X<XD 9 1.q.q.,.'.wXy.hXa.X 2.'.hX<.. J %.iX=Xz c q.x %Xg.l a s R.Y.H.H.L.L.L.(.^.",
"; } @X@X@X|.Y.U.x.5X<Xi y 3.q.1.uXrXy `.vXa.X 2.Q.<Xb o 8.#.iX=X8 c 7.3.f eXb Q ` ].}.|.|.@X@X@XK...",
"; } @X@X@X|./.E.v.yX;X0 R q.w.c bX&.$ #XnX&XX 7.*.a O 8 w.s.zXa.q c 3.q.h lXF < f T.{.|.|.@X@X@XK...",
"; } @X@X@X|.|.].M.yX=X0 G e.Q zX,X. H eXnX&XX U 7.I J 7.t.$XqXH o A 8.w.5 lXF Q *.c.{.|.|.@X@X@XK.{ ",
"; , 1 1 1 3 6 j 7 .X=Xo Z 2.XXxX/ & D #XnXa.. H w.w.w.<.$XtX*.# i 3.:Xg.5 lXD O & : j 6 2 1 1 1 , , ",
"_ } } } } } ' x.k.$X=X$ G %.iXcXiXiXyXjXvXqXP./ ,.r.%.5XhX=.% w 1.w.qXj.5 cXF i Q 6 x.c.} } } } } _ ",
"1X6X6X6X6X3X{.E.v.yX<X0 W %.o.&X-X-X-X-X;X*Xs.F W >.uXbXu.z w 1.r.w.q.w.5 cX%.a ` M..X2X3X6X6X6X6X1X",
"~.).).@X@X|.|.{.A.yX<Xz R e.v .       `.tX-.* 9 G :.aX-Xr % &.9.X.0.w.I > lXF Q  .R.I.Y.@X@X1X1X).~.",
"W.^.^.@X@X|.|.}.T.5X,XF 9 K j.0.A A V '.hX>.. P :.iXhXC $ D ,./.dXy 2.Z g ,Xb < f ].U.W.@X@X@X@X).~.",
"W.^.^.@X@X@X|.}.].H.*Xu.r #.,XeX7.8.2.'.hX&.X I Q.vXeX-X%X7X5XgXD q B 8 sX6.E ~ [ }.|.|.@X@X@X@X@X(.",
"W.^.^.(.(.(././.].c.8Xd.#.y 2.qX7.8.2.X.*XH X I o.-Xa.a.s.*X-X4.V q N 9 vX>.d ! N.]./.^.^.(.).).).~.",
"W.^.^.^.^.^././.!.b.:.h.u.i x 3.lX8.7.#.- = . L F = = * * * * # & q u aX;X#.T | R././.^.~.^.^.^.^.W.",
"W.^.^.^.^.^././.!._.z.:.h.y.d &.3.7.8.:X:X8.j.8.g.h.h.8.;Xj.3.L n M ] dXu.a g T.{.|.|.^.O.~.^.^.^.W.",
"W.^.^.^.^.^./././.!.E.` u.;X4X! 4.3.3.gXsXP jXB =XjX4XP vX4X1.N M X.pXf.Q ! X.E.{./.(.^.L.^.^.^.^.W.",
"L.^.^.^.^.^.^.^././.!.b.^ 4.,XpXe A B 0XoXn jXm oXdXXXn pX0Xn u ` pXj./ ! X.R.!././.^.^.^.^.^.^.^.L.",
"..D.K.K.K.K.K.F.F.J.U.T.c.~ 4.=XjXe M ;.;.m ;.m $.;.$.m :.;.w X jXd.&.a ] _.}.|.|.@X@X^.O.O.O.O.O...",
"..F.F.F.F.F.F.F.F.F.J.U.R.m. .<.2.kXg h E k k k k k k k p h pXvXP V a g R.!./././.^.^.W.D.D.D.D.O...",
"D.F.F.F.F.F.F.F.F.F.J.Y.].[.m.! %.1.;XgX7X'.'.'.'.'.'.'.#XlX,XK z r a z.Z.U.J.F.F.F.F.F.F.K.K.K.+...",
"D.F.F.F.F.F.F.F.F./.|.}.}.[.[.m.f c K 2.,XqXeXrXrXeXqXqX;XP V y r < z.C.R.G.S.S.S.O.F.F.F.F.F.F.F.D.",
"D.F.F.K.F.D.D.F.F.~././.E.R.A.n.l.7 e c G &.1.1.1.H H G C y 0 r > 7 k.x.M.V.G.G.S.D.F.F.D.D.F.F.F.D.",
"D.F.F.K.F.O.O.+.F.J.G.b.b.c.l.l.j 7 7 7 : : a d ! q p 5 : 4 4 4 7 7 ' ' c.c.b.S.G.H.F.F.O.O.+.K.F.D.",
"D.F.F.K.F.F.F.F.F.J.J.J.J.G.V.M.v.v.v.v.m.m.v.M.M.7 l.A.A.A.A.A.A.T.R.R.G.G.J.J.J.F.F.F.F.F.F.F.F.D.",
"O.F.F.F.F.F.F.F.F.F.F.J.J.J.J.U.U.R.R.R.].].]. X Xj m. X].].].].{.{.{./.J.J.H.F.F.F.F.F.F.F.F.F.F.O.",
"..D.K.K.K.K.F.F.F.F.F.F.F.F.H.J.J.|.|.|.Y.Y.J.}..X6 } J.J.J.J.J.J.J.J.J.F.F.F.F.D.O.O.O.O.O.O.O.O...",
"..+.+.+.+.+.+.F.).(.^.(.(.(.(.(.(.|.|.~.H.H.F.|.2X1 _ S.F.F.F.F.F.F.F.F.F.F.H.).^.^.^.^.^.^.^.^.^.W.",
"..D.D.D.D.D.D.K.@X@X|.|.|.|.@X@X@X@X).L.L.L.F.|.2X1 ( X.F.F.F.F.F.F.F.F.F.F.K.@X@X@X@X@X@X@X@X@X@X(.",
"(.@X@X@X@X@X@X@X@X~.K.F.F.F.@X@X@X@X@X@X@X).F.@X2X, ( ..O.O.O.O.D.K.K.F.O.O.+.@X@X@X@X@X@X@X@X@X@X(.",
"|.2X2X2X2X2X2X1X^.L.K.F.F.K.~.^.^.1X2X2X2X1XK.~.^., ( O.O.O.O.O.F.@X@X@X).).).2X2X2X2X2X2X2X2X2X2X@X",
"@X3X3X3X3X3X6X1XF.F.F.F.F.F.F.F.F.1X3X3X3X1XF.F.D., ( ..........F.6X6X3X3X3X3X3X2X3X3X3X3X3X3X3X3X|."
};
