/* XPM */
static const char *pc_on_50[] = {
/* columns rows colors chars-per-pixel */
"50 50 223 2 ",
"   c #3D3539",
".  c #44373B",
"X  c #5A553B",
"o  c #5E593E",
"O  c #3F4351",
"+  c #4D4242",
"@  c #564B48",
"#  c #544D4D",
"$  c #5F5A40",
"%  c #5C544D",
"&  c #505056",
"*  c #5A5756",
"=  c #625D41",
"-  c #795042",
";  c #645B54",
":  c #665B56",
">  c #6C674D",
",  c #706A4E",
"<  c #6C6657",
"1  c #6D635C",
"2  c #716A5A",
"3  c #7A7659",
"4  c #4B5267",
"5  c #525665",
"6  c #5F6064",
"7  c #676567",
"8  c #766963",
"9  c #746A64",
"0  c #7A6D65",
"q  c #767262",
"w  c #7B7466",
"e  c #7B7469",
"r  c #7D796B",
"t  c #666B7B",
"y  c #736F73",
"u  c #835D4E",
"i  c #9B6C54",
"p  c #A06F56",
"a  c #A8765C",
"s  c #83756C",
"d  c #857B68",
"f  c #86796E",
"g  c #857B70",
"h  c #897B71",
"j  c #AF7D62",
"k  c #87815F",
"l  c #898466",
"z  c #8C886F",
"x  c #8F8273",
"c  c #8A8776",
"v  c #918475",
"b  c #928B76",
"n  c #94857A",
"m  c #96897B",
"M  c #998C7D",
"N  c #969277",
"B  c #969279",
"V  c #9C917D",
"C  c #AF876B",
"Z  c #B38266",
"A  c #B58469",
"S  c #BC8A6D",
"D  c #BE8D70",
"F  c #A39977",
"G  c #BC9374",
"H  c #B8987D",
"J  c #A7A07A",
"K  c #A9A27D",
"L  c #C08D6F",
"P  c #C18E71",
"I  c #C49374",
"U  c #CA9677",
"Y  c #C39B7C",
"T  c #CB9A7A",
"R  c #D19E7E",
"E  c #D0A07F",
"W  c #51668F",
"Q  c #566A98",
"!  c #6D778D",
"~  c #6E7994",
"^  c #536EA1",
"/  c #5774AA",
"(  c #5D7CB7",
")  c #657EAF",
"_  c #807E80",
"`  c #7C859C",
"'  c #5F80BE",
"]  c #7586A8",
"[  c #6784B9",
"{  c #778EBA",
"}  c #5F81C1",
"|  c #6185C5",
" . c #6D8BC5",
".. c #6186C9",
"X. c #6589CC",
"o. c #6A8CCD",
"O. c #6F91CF",
"+. c #7291CC",
"@. c #7D98CA",
"#. c #678DD0",
"$. c #6A8FD2",
"%. c #6B90D3",
"&. c #7496D4",
"*. c #7799D7",
"=. c #7D9CD4",
"-. c #789AD8",
";. c #8E8C81",
":. c #968E83",
">. c #9C9183",
",. c #9C9884",
"<. c #979489",
"1. c #A29683",
"2. c #A49986",
"3. c #A49789",
"4. c #A59B8C",
"5. c #AA9C8B",
"6. c #BE9980",
"7. c #AB9F91",
"8. c #ABA583",
"9. c #AFA986",
"0. c #ADA48B",
"q. c #B0AB86",
"w. c #B2AD8B",
"e. c #B4B08E",
"r. c #ABA495",
"t. c #AAA596",
"y. c #ACA99B",
"u. c #B2A495",
"i. c #B3AC93",
"p. c #B4A799",
"a. c #B5AA9B",
"s. c #B9AC9B",
"d. c #B6B193",
"f. c #B9B597",
"g. c #B5B199",
"h. c #BBB69A",
"j. c #BDB99D",
"k. c #909DB7",
"l. c #93A0BB",
"z. c #ACAAA1",
"x. c #B2ADA2",
"c. c #BCAFA0",
"v. c #B5B1A4",
"b. c #BBB3A3",
"n. c #BEBBA2",
"m. c #BBB8AB",
"M. c #BBB9B1",
"N. c #CA9F80",
"B. c #D19F80",
"V. c #C9A486",
"C. c #D6A484",
"Z. c #C8B38E",
"A. c #C9AC93",
"S. c #C4B89E",
"D. c #D4B599",
"F. c #C3B6A4",
"G. c #C2BEA4",
"H. c #CABCA6",
"J. c #C3BCAA",
"K. c #CBBDAA",
"L. c #D9BEA2",
"P. c #C1BEB3",
"I. c #C1BFB9",
"U. c #DEC69B",
"Y. c #C4C0A6",
"T. c #C5C2AB",
"R. c #C9C5AE",
"E. c #D3C4AD",
"W. c #DCC9AE",
"Q. c #C3C1B4",
"!. c #CAC6B1",
"~. c #CCC9B4",
"^. c #C8C5BB",
"/. c #CECCBB",
"(. c #D2C5B2",
"). c #DBC7B0",
"_. c #D4CAB6",
"`. c #DACBB5",
"'. c #D3CDBB",
"]. c #DBCFBD",
"[. c #DCD0B5",
"{. c #D3D0BE",
"}. c #DCD0BE",
"|. c #EBD0AB",
" X c #E3D5BD",
".X c #E9D6BC",
"XX c #F2D5B8",
"oX c #879CC7",
"OX c #819ED3",
"+X c #95A7CC",
"@X c #84A1D5",
"#X c #86A4DA",
"$X c #8CA7D8",
"%X c #89A7DE",
"&X c #94ACDB",
"*X c #9DB2DA",
"=X c #A0B5DE",
"-X c #8DAAE0",
";X c #99B3E3",
":X c #A2BAE6",
">X c #CECCC0",
",X c #D2CFC1",
"<X c #D5D2C3",
"1X c #D9D4C5",
"2X c #DFD8C4",
"3X c #D6D3C9",
"4X c #D9D7C9",
"5X c #DCD9CC",
"6X c #DEDCD1",
"7X c #E3D6C2",
"8X c #E7DAC5",
"9X c #EADBC4",
"0X c #EBDDC8",
"qX c #F0DFC6",
"wX c #E0DED3",
"eX c #E0DED8",
"rX c #EDE1CB",
"tX c #F3E4CB",
"yX c #F5E8CC",
"uX c #E6E3D8",
"iX c #F6E8D1",
"pX c #F9EBD3",
"aX c #EBEAE4",
/* pixels */
"X o o o o o o o o o o o $ = = > < 2 q w w r e e r r r g c c ;.;.;.:.:.;.;.;.c g w 2 < > = = $ $ o X ",
"= 3 z z z z z z z z z z l d b B ,.4.t.t.y.y.y.y.y.t.t.t.v.m.M.P.P.Q.M.M.P.M.m.v.t.4.,.B b d 3 3 3 3 ",
"= ,.~.~.~.~.~.~.~.~.~.~.j.8.~.{.1X5X5X6X6XwXwXwXwX4X<X/.wX6XwXwX5X5X'.~.'.~.^.uX6X5X<X{./.w.K K K F ",
"= B Y.w.d.Y.Y.Y.Y.Y.Y.T.G.G.~.~.!.'.<X1X1X1X'.'._.E.R.E.(._._._.'.'._._._.K.2.t./.<X1X{./.T.G.G.w.F ",
"= N G.q.w.G.G.G.G.G.G.Y.T.R.~.~.G.Y.R._._._._._._._._._._.`.'.R.K.K.K.J._.J.M >.V v.5X4X{.~.R.Y.d.8.",
"= N G.G.G.G.G.G.G.G.Y.Y.T.R.'.1X(.G.F.a.a.3.3.4.>.>.>.f 1 1 ; % + + + ; (.J.M M m >.t.,X4X'.R.f.G.G.",
"= N G.w.d.j.j.j.j.j.j.j.G.T./.1X(.w h f h g e 9 1 * * * # # # # # # # s _.F.n m x M >.2.P.5X<XJ.!.R.",
"= N G.8.9.f.f.f.h.h.h.h.G.T.'.1XR.; 1 7 ! ! ! 7 7 7 6 * & & 4 4 O     8 ].F.n n h m :.>.1.t.,X,X<X/.",
"= N G.G.G.G.G.G.G.G.Y.T.R.~.<X1XK.% ; t +X*Xk.k.k.oX] @.{ { ) [ [ ( W 1 }.F.n n h n m M M >.1.J.6X3X",
"= N G.G.G.G.G.G.w.h.j.G.T.~.<X4XJ.% y l.*X*X&X&X;X$X#X%X%X@.+.+.$.X.Q ; ].J.n n h n n m M M >.V J.uX",
"= N G.G.G.G.G.j.J w.h.j.G.!.1X5XJ.1 ` =X:X*X&X;X;X&X%X%X#X=.&.O.%.X./ ; ].F.n n h n n n m M M m >.eX",
"= N G.G.h.K j.G.G.G.G.9.h.!.1X5XJ.0 ` :X:X;X;X&X-X%X@X=.=.*.&.%.o.X./ * ].F.n n h n n n n n m M M x.",
"= N G.Y.h.J d.h.h.j.h.9.d.T.<X4XJ.f ] *X;X;X$X$X%X%X@.[ &. .X.X.X.X.( ; ].c.n n g n n n n n n n m m ",
"= N G.Y.h.J 8.q.9.q.w.8.w.n./.,XJ.x ~ +X&X$X#X%X%X%X@. . . .} | ..../ 7 ].s.n n g n n n n n n n n n ",
"= l 8.j.h.J 8.q.9.q.w.w.d.n./.'.J.h ` +X&X%X%X%X#XOX+. .o.o.| ......^ 9 ].a.n n h n n n n n n n n n ",
"= k J j.j.q.w.e.9.9.q.w.d.n./.'.j.h ! oX%X%X#XOX=.*.[ [ $.o.$.X.....^ 9 ].p.n n g n n n n n n n n n ",
"= k J S.G.G.G.j.J J K e.h.Y.<X'.h.f ~ @X%X@X@X&.*.+.o.o.$.$.$.X.....^ 9 ].p.n n f n n n n n n n n n ",
"= k J j.G.G.G.G.h.w.q.e.f.Y.<X'.s.s ] #X#X=.&.-.*.%.$.$.$.X.X.X.} ../ r ].a.n n f n n n n n n n n n ",
"= k J j.G.j.j.j.j.e.w.w.f.J.,X'.p.0 ) @X#X=.-.*.*.%.$.$.........| ../ <.].a.n n h n n n n n n n n n ",
"= k J j.h.J J J J J K 8.d.Y.,X'.u.8 ~ =.=.-.&.&.$.$.%.$.| ......| | ( z.].a.n n h n n n n n n n n n ",
"= k J j.j.f.f.d.J K K q.f.Y.,X_.p.; t +.*.*.%.$.$.$.#.X.............( M.}.u.n n f n n n n n n n n n ",
"= l K S.G.G.G.j.J K 8.d.h.T.<X_.p.@ t  .+.&.o.| X.%.X.......X.....| W /.}.u.n n f n n n n n n n n n ",
"= N G.G.G.G.d.w.w.w.w.T.R.'.5X{.a.@ ; 4 4 Q W Q ( ( | } } ' ( | ( ^ * yX}.7.n n f n n n n n n n n n ",
"= N G.G.G.G.j.f.h.h.j.T.R.'.5X'.a.F |.|.U.Z.H F d d 6 5 _ n t.m.'.rXpXiX}.4.n n f n n n n n n n n n ",
"= N G.G.G.G.G.G.G.G.Y.T.R.'.5X'._. X.X.X9X9X0X0X0X0X0X0X0X0X0X0X0X0X0X8X}.3.n n f n n n n n n n n n ",
"= > , , , , , , , , 2 3 c <.m.b.R._.`.].].}.}.}.}.}.}.}.}.}.}.}.].].}.}.].3.n n f n n n n n n n n n ",
"b N N N N N z z z b B ,.0.x.^.J.!._.`.].}.}.].].}.}.}.}.}.}.}.}.}.}.].].].3.n n h n n n n n n n n n ",
"Y.~.~.~.~.~.j.f.f.T.~.~.'.1XwX'.].].}.}.}.}.].].}.}.}.}.}.!.a.a.p.u.u.b.].3.n n h n n n n n n n m m ",
"d.j.j.G.Y.Y.G.G.G.Y.T.T.!.'.5X_.'.`.].}.}.}.}.].].!.(.J.b.t.n f s 8 ; m ].3.n n h n n n n n n m m m ",
"i.f.f.G.G.G.Y.Y.Y.Y.T.T.R.'.4X(._.`.].].}.}.}.}.}.}.}.}.}.].8X8X8X8X8X7X].3.n n h n n n n m m h >.3X",
"i.f.f.G.G.Y.Y.Y.T.T.T.R.!./.1X<X5X!.F.K.K.K._.}.}.}.}.}.}.}.].].].].].].].1.n n h x f 8 ; 1 w n x.aX",
"w.h.h.j.j.j.j.G.G.G.Y.T.R.~.<X5XuXM.f 8 1 ; % +   . ; 0 0 e n >.:.3.u.a.p.f 1 ; + @ ; s n n m M a.uX",
"i.h.h.h.j.j.n.G.T.R.!.~.~./.<X5XuX<XF.F.s.p.p.4.3.>.h s 0 8 ; ; % @ .     % ; 0 h n n n n m M m v.6X",
"i.h.h.j.n.G.T.~./.'.{.<X1X5X6XuXaXwX(.K.K.!.}.].].].].]._.!.!.J.F.F.a.p.3.3.n n n n n m h w 1 2 v.5X",
"d.j.j.G.T.!./.1X1X[.W. X X.X8XrXiXiX X X].K.p.5.7.>.>.>.p.a.K.R.].].].].].(.n n v s 1 % % ; 2 w v.<X",
"d.n.Y.R.~.<X4X`.L.V.H N.Y Y D.D.L.|..XXXyXtXpXpXyXtX0X[.K.s.>.s . @ 0 g >.>.1 % @ % ; < 2 w 4.Q.<X~.",
"q.h.T.~.<X1XD.Y G I I G Y G Y Y I U S L I S N.V.D.XXXXXX.XXXtXtXpXiX7X`.K.s.t.1 ; 1 w m v././.!.G.g.",
"h.T./.1XH.V.V.G T G T U I T I T A T A I L I I I U I C.D S D D S E.pXpXpXpXpXH.f e x.,X5X/.!.J.n.d.q.",
"!.<X'.V.G Y E T Z T I U I T I U I S T A R S R A L Z I a L Z T Z C.D.pXpXpXF.M t.wX5X'.!.Y.n.j.f.w.K ",
"3X2XE.A.H C a i j I T E R B.R I R S T P T I I U I T j S C.T S T a - K.pXF.m m 1.5X/.T.G.h.f.d.e.w.8.",
"_.[.9XtXtXiXtX9XW.L.A.6.j a j A I T R C.U S I Z I Z T C.C.C.T p - K.pXh.n m M V >X!.G.h.w.q.q.w.w.8.",
"j.S.H.K.E.`. X9XrXiXpXpXpXtX9X).D.A.H a i a i u S I S T P T i u (.iXp.n n m M m /.!.n.d.8.K K w.9.8.",
",Xp.1.2.0.i.h.F.K.H.E.).[.7X0XtXpXpXpXpXqX.XE.).A.H a i a p u  XyXp.m m m v x 2.<XY.h.d.w.9.9.q.9.8.",
"!./.J.v.t.,.b m V 2.0.i.s.F.K.H.H.(.`. X9XtXiXpXpXpXpXtX.X). XtX5.m M n h v V m.~.n.d.w.q.9.9.9.9.K ",
"g.J.~./.,X<X1X>XQ.b.y.3.v m M 2.5.i.h.F.K.H.H.E.`.`. X9XtXpXrX3.m m v x M V u.~.J.i.9.K K J J J J N ",
"0.d.h.n.n.J.T.~.1X4X4X5X6X3X^.P.m.y.>.M V 2.5.i.h.s.F.H.H.H.u.M v v m 1.b./.,X'.R.G.j.h.h.h.f.f.f.i.",
"8.q.w.i.d.d.h.G.'././.'.<X1X5X5X5X6X6X<X^.P.b.a.t.s v V 5.0.2.b M 5.Q.<X,X~.T.~.R.T.Y.Y.G.G.G.G.G.h.",
"j.Y.Y.T.T.T.R.R.R.G.h.j.j.G.'.'.'.{.<X1X4X4X<X5XuXI.Q.Q.m.a.4.t.^.3X'.~.G.h.d.R.T.Y.Y.G.G.G.G.G.G.h.",
"n.R.R.R.R.!.!.R.h.f.d.d.d.f.G.G.G.~.'.{.<X<XT.~./.z.P.'.,X,X,X/./.<X'.~.R.T.G.~.R.R.R.R.R.R.R.R.R.n.",
"J.!.!.!.!.!.!.Y.q.w.w.w.w.w.i.d.d.!././.'./.j.n.n.<.y.J.T.T.T.J.T.<X'./.~.~.~.~.!.!.R.R.R.R.R.R.R.m."
};
