/* XPM */
static const char *pc_off_50[] = {
/* columns rows colors chars-per-pixel */
"50 50 212 2 ",
"   c #2F2F36",
".  c #2F3036",
"X  c #303137",
"o  c #3F3337",
"O  c #34353B",
"+  c #37383E",
"@  c #44373B",
"#  c #5A553B",
"$  c #5E593E",
"%  c #3B3C43",
"&  c #3F4047",
"*  c #404147",
"=  c #4D4242",
"-  c #44444A",
";  c #47484E",
":  c #4A4A4E",
">  c #564B48",
",  c #544D4D",
"<  c #5F5A40",
"1  c #5C544D",
"2  c #4C4C52",
"3  c #524F50",
"4  c #515155",
"5  c #595655",
"6  c #5D5856",
"7  c #54555A",
"8  c #5A595E",
"9  c #625D41",
"0  c #795042",
"q  c #625652",
"w  c #645B54",
"e  c #635D59",
"r  c #6B5E59",
"t  c #68634B",
"y  c #6F6A4E",
"u  c #706A4E",
"i  c #6B6558",
"p  c #6D635C",
"a  c #716859",
"s  c #716D5D",
"d  c #7A7659",
"f  c #5D5D62",
"g  c #626265",
"h  c #6D6763",
"j  c #65656A",
"k  c #6A6A6E",
"l  c #746A64",
"z  c #746B66",
"x  c #7A6D65",
"c  c #767262",
"v  c #7B7466",
"b  c #7B7469",
"n  c #7D796B",
"m  c #6D6D71",
"M  c #727274",
"N  c #757579",
"B  c #7A7A7D",
"V  c #835D4E",
"C  c #966851",
"Z  c #9D6D54",
"A  c #A06F56",
"S  c #A9765B",
"D  c #A8765C",
"F  c #83756C",
"G  c #857B68",
"H  c #86796E",
"J  c #847B71",
"K  c #897B71",
"L  c #AF7D62",
"P  c #87815F",
"I  c #898466",
"U  c #8C886F",
"Y  c #8F8273",
"T  c #8A8776",
"R  c #918475",
"E  c #928B76",
"W  c #94857A",
"Q  c #96897B",
"!  c #998C7D",
"~  c #969277",
"^  c #969279",
"/  c #9C917D",
"(  c #AF876B",
")  c #B38266",
"_  c #B48469",
"`  c #B88669",
"'  c #BC8A6D",
"]  c #BE8D70",
"[  c #A39977",
"{  c #BC9374",
"}  c #B8987D",
"|  c #A7A07A",
" . c #A9A27D",
".. c #C08D6F",
"X. c #C18E71",
"o. c #C49374",
"O. c #CA9677",
"+. c #C39B7C",
"@. c #CB9A7A",
"#. c #D19E7E",
"$. c #D0A07F",
"%. c #7F7F82",
"&. c #848385",
"*. c #8B8A83",
"=. c #8B8B8C",
"-. c #918F85",
";. c #9A8E82",
":. c #9C9183",
">. c #9D9884",
",. c #969489",
"<. c #939292",
"1. c #A29683",
"2. c #A49986",
"3. c #A49789",
"4. c #A59B8C",
"5. c #AA9C8B",
"6. c #BE9980",
"7. c #AB9F91",
"8. c #ABA583",
"9. c #AFA986",
"0. c #ADA48B",
"q. c #B0AB86",
"w. c #B2AD8B",
"e. c #B4B08E",
"r. c #ABA495",
"t. c #AAA696",
"y. c #ACA99B",
"u. c #B2A495",
"i. c #B3AC93",
"p. c #B4A799",
"a. c #B5AA9B",
"s. c #B9AC9B",
"d. c #B6B193",
"f. c #B9B597",
"g. c #B5B199",
"h. c #BBB69A",
"j. c #BDB99D",
"k. c #ACAAA1",
"l. c #B2ADA2",
"z. c #BCAFA0",
"x. c #B5B1A4",
"c. c #BBB3A3",
"v. c #BEBBA2",
"b. c #BAB7AA",
"n. c #BCBBB1",
"m. c #CA9F80",
"M. c #D19F80",
"N. c #C9A486",
"B. c #D5A382",
"V. c #D9A888",
"C. c #C8B38E",
"Z. c #C9AC93",
"A. c #C4B89E",
"S. c #D4B599",
"D. c #C3B6A4",
"F. c #C2BEA4",
"G. c #CABCA6",
"H. c #C3BCAA",
"J. c #CBBDAA",
"K. c #D9BEA2",
"L. c #C1BEB3",
"P. c #C1BFB9",
"I. c #DEC69B",
"U. c #C4C0A6",
"Y. c #C5C2AB",
"T. c #C9C5AE",
"R. c #D3C4AD",
"E. c #DCC9AE",
"W. c #C3C1B4",
"Q. c #CAC6B1",
"!. c #CCC9B4",
"~. c #C4C3BB",
"^. c #CAC7BB",
"/. c #CECCBB",
"(. c #D2C5B2",
"). c #DBC7B0",
"_. c #D4CAB6",
"`. c #DACBB5",
"'. c #D3CDBB",
"]. c #DBCFBD",
"[. c #DCD2B5",
"{. c #D3D0BE",
"}. c #DCD0BE",
"|. c #F1D6A6",
" X c #E4CBB0",
".X c #E3D5BD",
"XX c #E9D6BC",
"oX c #F2D5B8",
"OX c #CECCC0",
"+X c #D2CFC1",
"@X c #D5D2C3",
"#X c #D9D4C5",
"$X c #DFD8C4",
"%X c #D6D3C9",
"&X c #D9D7C9",
"*X c #DCD9CC",
"=X c #DEDCD1",
"-X c #E3D6C2",
";X c #E7DAC5",
":X c #EADBC4",
">X c #EBDDC8",
",X c #F0DFC6",
"<X c #E0DED3",
"1X c #E0DED8",
"2X c #EDE1CA",
"3X c #F4E5C7",
"4X c #F3E4CB",
"5X c #F6E9CE",
"6X c #E6E3D8",
"7X c #F6E8D1",
"8X c #F9EBD3",
"9X c #EBEAE4",
/* pixels */
"# $ $ $ $ $ $ $ $ $ $ $ < 9 9 t i s c v v n b b n n n J T T *.-.-.-.-.-.-.*.T J v s i t 9 9 < < $ # ",
"9 d U U U U U U U U U U I G E ^ >.4.t.t.y.y.y.y.y.t.t.t.x.b.n.L.L.W.n.n.L.n.b.l.t.4.>.^ E G d d d d ",
"9 >.!.!.!.!.!.!.!.!.!.!.j.8.!.{.#X*X*X=X=X<X<X<X<X&X@X/.<X=X<X<X*X*X'.!.].!.^.<X=X*X@X{./.w. . . .[ ",
"9 ^ U.w.d.U.U.U.U.U.U.Y.F.F.!.!.Q.'.@X#X#X#X'.'._.R.T.R.(._._._.'.'._._._.J.2.t./.@X#X{./.Y.F.F.w.[ ",
"9 ~ F.q.w.F.F.F.F.F.F.U.Y.T.!.!.F.G.T._._._._._._._._._._.`.'.T.J.J.H.H._.H.! :./ x.*X&X{.!.T.U.d.8.",
"9 ~ F.F.F.F.F.F.F.F.U.U.Y.T.'.#X(.D.D.a.a.3.3.4.:.:.:.H p p q 1 = = = w (.H.! ! Q :.t.+X&X'.T.f.F.F.",
"9 ~ F.w.d.j.j.j.j.j.j.j.F.Y./.#X(.v K H K J b l p 6 6 5 3 , , , , , , F _.D.W Q Y ! :.2.L.*X@XH.Q.T.",
"9 ~ F.8.9.f.f.f.h.h.h.h.F.Y.'.#XT.w p p : 4 f g g j g 8 4 : * % % + + l ].D.W W K Q ;.:.1.t.+X+X@X/.",
"9 ~ F.F.F.F.F.F.F.F.U.Y.T.!.@X#XJ.1 e g &.=.%.B M k g f 7 4 2 - % + + p }.D.W W K W Q ! ! :.1.H.=X%X",
"9 ~ F.F.F.F.F.F.w.h.j.F.Y.!.@X&XH.1 p &.<.&.%.N m j g 8 7 4 : - % + O w ].H.W W K W W Q ! ! :./ H.6X",
"9 ~ F.F.F.F.F.j.| w.h.j.F.Q.#X*XH.p e =.=.&.B N m j f 8 4 2 ; * % + O w ].D.W W K W W W Q ! ! Q :.1X",
"9 ~ F.F.h. .j.F.F.F.F.9.h.Q.#X*XH.x e <.=.&.B M k f 7 2 ; - * % % + O 5 ].D.W W K W W W W W Q ! ! l.",
"9 ~ F.U.h.| d.h.h.j.h.9.d.Y.@X&XH.H g <.=.&.N j 8 7 2 2 ; - * % % + O e ].z.W W J W W W W W W W Q Q ",
"9 ~ F.U.h.| 8.q.9.q.w.8.w.v./.+XH.Y g <.=.N g f 8 7 2 2 ; * & % % + O h ].s.W W J W W W W W W W W W ",
"9 I 8.j.h.| 8.q.9.q.w.w.d.v./.'.H.K m =.M j g f 7 4 2 : ; * % % % + O l ].a.W W K W W W W W W W W W ",
"9 P | j.j.q.w.e.9.9.q.w.d.v./.'.j.K g M k j f 8 7 4 2 ; - * % % + O O l ].p.W W J W W W W W W W W W ",
"9 P | A.F.F.F.j.| |  .e.h.U.@X'.h.H 5 M k j f 8 7 2 2 ; - * % % + O X l ].p.W W H W W W W W W W W W ",
"9 P | j.F.F.F.F.h.w.q.e.f.U.@X'.s.F 4 M k g f 8 7 2 2 ; * & % % + O X n ].a.W W H W W W W W W W W W ",
"9 P | j.F.j.j.j.j.e.w.w.f.H.+X'.p.x : k k g f 7 4 2 2 ; * % % + + O . >.].a.W W K W W W W W W W W W ",
"9 P | j.h.| | | | |  .8.d.U.+X'.u.l , g j g 8 7 4 2 : - * % % + O O   t.].p.W W K W W W W W W W W W ",
"9 P | j.j.f.f.d.|  . .q.f.U.+X_.p.w 6 4 j f 8 7 2 2 ; - * % % + O X . F.}.u.W W H W W W W W W W W W ",
"9 I  .A.F.F.F.j.|  .8.d.h.Y.@X_.p.> 6 - 7 f 8 7 2 2 ; * % % % + O X . [.}.u.W W H W W W W W W W W W ",
"9 ~ F.F.F.F.d.w.w.w.w.Y.T.'.*X{.s.> w - * - 2 2 2 : - * % % + O X X 6 3X}.7.W W H W W W W W W W W W ",
"9 ~ F.F.F.F.j.f.h.h.j.Y.T.'.*X'.s.[ |.|.I.C.} [ G G 6 4 J Q t.H.}.4X8X5X}.4.W W H W W W W W W W W W ",
"9 ~ F.F.F.F.F.F.F.F.U.Y.T.'.*X'._..XXXXX:X:X>X>X>X>X>X>X>X>X>X>X>X>X>X;X}.3.W W H W W W W W W W W W ",
"9 t y y y y u u u u s d T >.b.c.T._.`.].].}.}.}.}.}.}.}.}.}.}.}.}.}.}.}.].3.W W H W W W W W W W W W ",
"E ~ ~ ~ ~ ~ U U U E ^ >.0.l.~.H.Q._.`.].}.}.}.}.}.}.}.}.}.}.}.}.}.}.].].].3.W W K W W W W W W W W W ",
"U.!.!.!.!.!.j.f.f.Y.!.!.'.#X<X'.].].}.}.}.}.}.}.}.}.}.}.}.Q.a.a.p.u.u.c.].3.W W K W W W W W W W Q Q ",
"d.j.j.F.U.U.F.F.F.U.Y.Y.Q.'.*X_.'.`.].}.}.}.}.}.].Q.(.H.c.t.W H F l q Q ].3.W W K W W W W W W Q Q Q ",
"i.f.f.F.F.F.U.U.U.U.Y.Y.T.'.&X(._.`.].].}.}.}.}.}.}.}.}.}.].;X;X;X;X;X-X].3.W W K W W W W Q Q K :.%X",
"i.f.f.F.F.U.U.U.Y.Y.Y.T.Q./.#X@X*XQ.D.J.J.J._.}.}.}.}.}.}.}.].].].].].].].1.W W K Y H x r p v W l.9X",
"w.h.h.j.j.j.j.F.F.F.U.Y.T.!.@X*X6Xn.H l p q > = o @ r x x b W :.;.3.u.a.p.H p q = > r F W W Q ! a.6X",
"i.h.h.h.j.j.v.F.Y.T.Q.!.!./.@X*X6X@XD.D.s.p.p.4.3.;.K F x l r w > > @ o o 1 w x K W W W W Q ! Q x.=X",
"i.h.h.j.v.U.Y.!./.'.{.@X#X*X=X6X9X<X(.J.J.Q.}.].].].].]._.Q.Q.H.D.D.a.p.3.3.W W W W W Q K v p a x.*X",
"d.j.j.F.Y.!./.#X#X[.E..X.XXX;X2X7X7X.X.X].J.p.5.7.:.:.:.p.a.J.T.].].].].].(.W W R F p 1 1 w s v x.@X",
"d.v.U.T.!.@X*X`.K.N.} m.+.+.S.S.K. XXXoX4X4X8X8X4X4X>X}.J.s.:.F @ > x J ;.:.p 1 > 1 w i s v 4.W.@X!.",
"q.h.Y.!.@X#XS.+.{ o.o.{ +.{ +.+.o.O.' ..o.' m.N.S.oXoXoXXXoX4X3X8X7X-X`.J.s.t.p w p v Q x././.Q.F.g.",
"h.Y./.#XG.N.N.{ @.{ @.O.o.@.o.@._ @._ o.' o.o.o.O.o.B.] ' ] ] ' R.8X8X8X8X8XG.F b l.+X*X/.Q.H.v.d.q.",
"Q.@X'.N.{ +.$.@.) @.o.O.o.@.o.O.o.' @._ #.' #._ ..) o.S ..) @._ V.S.8X8X8XD.! t.<X*X'.Q.U.v.j.f.w. .",
"%X$XR.Z.} ( D C L o.@.$.#.M.#.o.#.' @.X.@.o.o.O.o.@.L ' B.@.' @.D 0 J.8XD.Q Q 1.*X/.Y.F.h.f.d.e.w.8.",
"_.}.:X4X4X5X4X:XE.K.Z.6.L S L ` o.@.#.B.O.' o.) o.) @.B.B.B.@.A 0 J.8Xh.W Q ! / OXQ.F.h.w.q.q.w.w.8.",
"j.A.G.J.R.`..X:X2X5X8X8X8X4X:X).S.Z.} S Z S C C ' o.' @.X.@.Z V (.7Xp.W W Q ! Q ^.Q.v.d.8. . .w.9.8.",
"+Xp.1.2.0.i.h.D.J.G.R.).}.-X>X4X8X8X8X8X,XXXR.).Z.} D Z S A V .X4Xp.Q Q Q R Y 2.@XU.h.d.w.9.9.q.9.8.",
"Q./.H.x.t.>.E Q / 2.0.i.s.D.J.G.G.(.`..X:X4X5X8X8X8X8X4XXX)..X4X5.Q ! W K R / b.!.v.d.w.q.9.9.9.9. .",
"g.H.!./.+X@X#XOXW.c.y.3.R Q ! 2.5.i.h.D.J.G.G.R.`.`..X:X4X8X2X3.Q Q R Y ! / u.!.H.i.9. . .| | | | ~ ",
"0.d.h.v.v.H.Y.!.#X&X&X*X=X%X^.L.b.y.:.! / 2.5.i.h.s.D.G.G.G.u.! R R Q 1.c./.+X'.T.F.j.h.h.h.f.f.f.i.",
"8.q.w.i.d.d.h.F.'././.'.{.#X*X*X*X=X=X@X^.L.c.a.t.F R / 5.0.2.E ! 5.W.@X+X!.Y.!.T.Y.U.U.F.F.F.F.F.h.",
"j.U.U.Y.Y.Y.T.T.T.F.h.j.j.F./.'.'.{.@X#X&X&X@X*X6XP.~.W.b.a.4.t.^.%X'.!.F.h.d.T.Y.U.U.F.F.F.F.F.F.h.",
"v.T.T.T.T.Q.Q.T.h.f.d.d.d.f.F.F.F.!.'.{.@X@XY.!./.k.L.'.+X+X+X/./.@X'.!.T.Y.F.!.T.T.T.T.T.T.T.T.T.v.",
"H.Q.Q.Q.Q.Q.Q.U.q.w.w.w.w.w.i.d.d.Q././.'./.j.v.v.,.y.H.Y.Y.Y.H.Y.@X'./.!.!.!.!.Q.Q.T.T.T.T.T.T.T.b."
};
